<?xml version="1.0" encoding="UTF-8" standalone="no"?>
<svg
   xmlns:dc="http://purl.org/dc/elements/1.1/"
   xmlns:cc="http://creativecommons.org/ns#"
   xmlns:rdf="http://www.w3.org/1999/02/22-rdf-syntax-ns#"
   xmlns:svg="http://www.w3.org/2000/svg"
   xmlns="http://www.w3.org/2000/svg"
   xmlns:sodipodi="http://sodipodi.sourceforge.net/DTD/sodipodi-0.dtd"
   xmlns:inkscape="http://www.inkscape.org/namespaces/inkscape"
   width="39.134174"
   height="39.12608"
   viewBox="0 0 39.134174 39.12608"
   version="1.1"
   id="svg29"
   sodipodi:docname="pixelfed_white.svg"
   inkscape:version="1.0.1 (0767f8302a, 2020-10-17)">
  <metadata
     id="metadata33">
    <rdf:RDF>
      <cc:Work
         rdf:about="">
        <dc:format>image/svg+xml</dc:format>
        <dc:type
           rdf:resource="http://purl.org/dc/dcmitype/StillImage" />
        <dc:title>04/full/color/svg/pixelfed-full-color</dc:title>
      </cc:Work>
    </rdf:RDF>
  </metadata>
  <sodipodi:namedview
     pagecolor="#ffffff"
     bordercolor="#666666"
     borderopacity="1"
     objecttolerance="10"
     gridtolerance="10"
     guidetolerance="10"
     inkscape:pageopacity="0"
     inkscape:pageshadow="2"
     inkscape:window-width="1368"
     inkscape:window-height="836"
     id="namedview31"
     showgrid="false"
     fit-margin-top="0"
     fit-margin-left="0"
     fit-margin-right="0"
     fit-margin-bottom="0"
     inkscape:zoom="3.6303635"
     inkscape:cx="14.716744"
     inkscape:cy="14.87764"
     inkscape:window-x="72"
     inkscape:window-y="27"
     inkscape:window-maximized="1"
     inkscape:current-layer="svg29"
     inkscape:document-rotation="0" />
  <!-- Generator: Sketch 50.2 (55047) - http://www.bohemiancoding.com/sketch -->
  <title
     id="title2">04/full/color/svg/pixelfed-full-color</title>
  <desc
     id="desc4">Created with Sketch.</desc>
  <defs
     id="defs6" />
  <g
     id="photos"
     transform="translate(-0.048611,-0.181307)"
     style="fill:#000000;fill-rule:nonzero;stroke:none;stroke-width:1">
    <g
       id="Group-3"
       style="fill:#000000">
      <g
         id="Group-2"
         style="fill:#000000">
        <path
           d="m 17.470167,18.705316 c 0.04048,0.282647 0.06881,0.568667 0.06881,0.862108 0,3.339151 -2.732032,6.071183 -6.071183,6.071183 H 6.0711833 C 2.7320325,25.638607 0,22.906575 0,19.567424 c 0,-3.014005 2.2281243,-5.526126 5.117333,-5.987536 0,0 6.745e-4,6.74e-4 6.745e-4,6.74e-4 0,-6.74e-4 -6.745e-4,-0.0013 -6.745e-4,-0.0013 0.311654,-0.04992 0.6287047,-0.08297 0.9538503,-0.08297 h 5.3966077 c 3.04571,0 5.579417,2.275344 6.002376,5.209075 z"
           id="Combined-Shape"
           inkscape:connector-curvature="0"
           style="fill:#000000" />
        <path
           d="M 25.558333,5.1132855 C 25.092875,2.2281243 22.582778,0.00404746 19.571471,0.00404746 c -3.011307,0 -5.521404,2.22407684 -5.986861,5.10923804 0.258363,0.186183 0.507956,0.3885557 0.74001,0.6206099 l 3.816076,3.816076 c 0.668504,0.6685046 1.141382,1.4597826 1.430775,2.3009786 0.443871,1.28844 0.443871,2.695605 0,3.984045 -0.199674,0.578786 -0.488393,1.131264 -0.86683,1.638545 0.283997,0.04115 0.572041,0.07016 0.86683,0.07016 0.29479,0 0.582834,-0.02833 0.86683,-0.07016 0.626681,-0.09107 1.221657,-0.277251 1.772111,-0.545732 1.22503,-0.596999 2.22003,-1.591999 2.817029,-2.817029 0.389905,-0.800047 0.615214,-1.693185 0.615214,-2.638941 V 6.0752308 c 0,-0.3278439 -0.03373,-0.6475929 -0.08432,-0.9619453 z"
           id="Shape"
           inkscape:connector-curvature="0"
           style="fill:#000000" />
        <path
           d="m 24.818323,33.400278 -3.816076,-3.816076 c -0.668505,-0.668505 -1.141383,-1.459783 -1.430776,-2.300979 -0.443871,-1.28844 -0.443871,-2.695605 0,-3.984045 0.199675,-0.578786 0.488393,-1.131264 0.86683,-1.638545 -0.283996,-0.04115 -0.57204,-0.07016 -0.86683,-0.07016 -0.294789,0 -0.582833,0.02833 -0.86683,0.07016 -0.626681,0.09107 -1.221657,0.277251 -1.772111,0.545732 -1.22503,0.597 -2.220029,1.591999 -2.817029,2.817029 -0.389905,0.800047 -0.615213,1.693186 -0.615213,2.638941 v 5.396607 c 0,0.327844 0.03373,0.647593 0.08432,0.961946 0.465457,2.885161 2.975554,5.109238 5.986861,5.109238 3.011307,0 5.521404,-2.224077 5.986862,-5.109238 -0.258363,-0.186858 -0.507956,-0.389231 -0.74001,-0.62061 z"
           id="path11"
           inkscape:connector-curvature="0"
           style="fill:#000000" />
        <path
           d="m 34.024935,13.580562 c -0.186183,0.258363 -0.388556,0.507956 -0.62061,0.74001 l -3.816076,3.816076 c -0.668505,0.668505 -1.459782,1.140708 -2.300978,1.430776 -1.28844,0.443871 -2.695606,0.443871 -3.984046,0 -0.578786,-0.199675 -1.131264,-0.488393 -1.638545,-0.86683 -0.04115,0.283996 -0.06948,0.57204 -0.06948,0.86683 0,0.294789 0.02833,0.582833 0.06948,0.86683 0.09107,0.626681 0.277251,1.221657 0.545732,1.772111 0.597,1.22503 1.592,2.220029 2.817029,2.817029 0.800047,0.389905 1.693186,0.615213 2.638941,0.615213 h 5.396608 c 0.327844,0 0.647593,-0.03373 0.961945,-0.08432 2.885161,-0.465457 5.109238,-2.975554 5.109238,-5.986861 0,-3.011307 -2.224077,-5.522079 -5.109238,-5.986862 z"
           id="path13"
           inkscape:connector-curvature="0"
           style="fill:#000000" />
        <path
           d="M 33.404325,5.7338954 C 31.275364,3.6049337 27.927443,3.402561 25.558333,5.1132855 c 0.05059,0.3143524 0.08432,0.6341014 0.08432,0.9619453 v 5.3966072 c 0,0.945756 -0.225309,1.838894 -0.615214,2.638941 -0.596999,1.22503 -1.591999,2.22003 -2.817029,2.817029 -0.550454,0.268481 -1.14543,0.454664 -1.772111,0.545732 0.172017,0.230031 0.355502,0.45399 0.563946,0.662434 0.208444,0.208444 0.432403,0.391928 0.662433,0.563945 0.507281,0.378437 1.059759,0.66783 1.638545,0.86683 1.28844,0.443871 2.695606,0.443871 3.984046,0 0.841196,-0.290067 1.632473,-0.762271 2.300978,-1.430775 l 3.816076,-3.816076 c 0.232054,-0.232054 0.434427,-0.481648 0.62061,-0.74001 1.711399,-2.369111 1.508352,-5.7163564 -0.62061,-7.8459926 z"
           id="path15"
           inkscape:connector-curvature="0"
           style="fill:#000000" />
        <path
           d="m 34.024935,25.554285 c -0.314352,0.05059 -0.634101,0.08432 -0.961945,0.08432 h -5.396608 c -0.945755,0 -1.838894,-0.225308 -2.638941,-0.615213 -1.225029,-0.597 -2.220029,-1.591999 -2.817029,-2.817029 -0.268481,-0.550454 -0.454664,-1.14543 -0.545732,-1.772111 -0.23003,0.172017 -0.453989,0.355501 -0.662433,0.563945 -0.208444,0.208444 -0.391929,0.432404 -0.563946,0.662434 -0.378437,0.507281 -0.66783,1.059759 -0.86683,1.638545 -0.443871,1.28844 -0.443871,2.695605 0,3.984045 0.290068,0.841196 0.762271,1.632474 1.430776,2.300979 l 3.816076,3.816076 c 0.232054,0.232054 0.481647,0.434427 0.74001,0.62061 2.36911,1.710724 5.717031,1.508351 7.845992,-0.62061 2.128962,-2.128962 2.332009,-5.476882 0.62061,-7.845993 z"
           id="path17"
           inkscape:connector-curvature="0"
           style="fill:#000000" />
        <path
           d="M 19.571471,11.851624 C 19.281404,11.010428 18.8092,10.219151 18.140696,9.550646 L 14.32462,5.7338954 C 14.092566,5.5018412 13.842973,5.2994685 13.58461,5.1132855 11.215499,3.402561 7.867579,3.6049337 5.7386174,5.7338954 3.6096558,7.862857 3.407283,11.209428 5.117333,13.578539 c 0.311654,-0.04924 0.6287047,-0.0823 0.9538503,-0.0823 h 5.3966077 c 3.04571,0 5.579417,2.275344 6.002376,5.209075 0.0027,-0.002 0.0054,-0.0034 0.0081,-0.0054 0.230031,-0.172017 0.45399,-0.355501 0.662434,-0.563945 0.208444,-0.208444 0.391928,-0.432403 0.563945,-0.662434 0.378437,-0.507281 0.66783,-1.059759 0.86683,-1.638545 0.443871,-1.28844 0.443871,-2.695605 0,-3.983371 z"
           id="path19"
           inkscape:connector-curvature="0"
           style="fill:#000000" />
        <path
           d="m 18.140696,20.998199 c -0.208444,-0.208444 -0.432403,-0.391928 -0.662434,-0.563945 -0.507281,-0.378437 -1.059759,-0.66783 -1.638545,-0.86683 -1.28844,-0.443871 -2.695605,-0.443871 -3.984045,0 -0.841196,0.290067 -1.632474,0.762271 -2.3009786,1.430775 l -3.816076,3.816076 c -0.2320541,0.232054 -0.4344269,0.481648 -0.6206099,0.74001 -1.7107245,2.369111 -1.5083517,5.717031 0.6206099,7.845993 2.1289616,2.128961 5.4768816,2.331334 7.8459926,0.62061 -0.05059,-0.314353 -0.08432,-0.634102 -0.08432,-0.961946 v -5.396607 c 0,-0.945755 0.225308,-1.838894 0.615213,-2.638941 0.597,-1.22503 1.591999,-2.220029 2.817029,-2.817029 0.550454,-0.268481 1.14543,-0.454664 1.772111,-0.545732 -0.172017,-0.23003 -0.355501,-0.45399 -0.563945,-0.662434 z"
           id="path21"
           inkscape:connector-curvature="0"
           style="fill:#000000" />
      </g>
      <path
         d="m 18.383795,24.289386 h 3.427493 c 3.228836,0 5.846325,-2.568194 5.846325,-5.736222 0,-3.168028 -2.617489,-5.736221 -5.846325,-5.736221 h -4.94689 c -1.86279,0 -3.372879,1.48165 -3.372879,3.309358 v 12.880464 z"
         id="Path-6-Copy-2"
         inkscape:connector-curvature="0"
         style="fill:#000000" />
    </g>
  </g>
  <path
     style="opacity:0.980099;fill:#000000;stroke:#000000;stroke-width:0.262077;stroke-linecap:round;stroke-linejoin:bevel;paint-order:stroke fill markers"
     d="m 13.418826,22.099004 c 3.59e-4,-5.617099 0.05993,-6.562782 0.463249,-7.354134 0.748584,-1.468807 1.798469,-1.815648 5.492387,-1.814436 3.869566,0.0013 4.884079,0.255367 6.36631,1.594656 2.957053,2.671708 2.340916,7.131726 -1.225899,8.873929 -1.210687,0.591368 -1.740507,0.686815 -3.813704,0.686815 h -2.407686 l -1.180146,1.189131 c -0.64908,0.653989 -1.745971,1.657277 -2.437534,2.229656 l -1.257388,1.040389 z"
     id="path930" />
  <path
     style="opacity:0.980099;fill:#ffffff;stroke:#000000;stroke-width:0.275455;stroke-linecap:round;stroke-linejoin:bevel;paint-order:stroke fill markers"
     d="M 26.731192,34.288176 C 25.300436,33.639001 21.147636,29.683737 20.19072,28.058814 19.820684,27.43046 19.44302,26.283881 19.351467,25.510859 l -0.16646,-1.405493 h 2.089701 c 1.700007,0 2.331226,0.128419 3.384849,0.688636 1.208758,0.642704 1.55972,0.688637 5.261678,0.688637 h 3.966532 l 0.531392,1.170681 c 1.305332,2.875708 0.04951,6.174872 -2.867454,7.533087 -1.713294,0.797753 -3.216639,0.829491 -4.820513,0.101769 z"
     id="path1575" />
  <path
     style="opacity:0.980099;fill:#ffffff;stroke:#000000;stroke-width:0.275455;stroke-linecap:round;stroke-linejoin:bevel;paint-order:stroke fill markers"
     d="m 25.046288,24.622938 c -1.145577,-0.528773 -1.197782,-0.59618 -0.688636,-0.889177 1.095355,-0.630343 2.842364,-2.630459 3.025372,-3.463689 0.102923,-0.468608 0.455956,-0.988533 0.784517,-1.155389 0.32856,-0.166856 1.793732,-1.483849 3.255937,-2.926651 2.973474,-2.934018 3.061645,-2.959601 5.103191,-1.480713 1.424776,1.032102 2.292344,2.790681 2.292344,4.646629 0,1.752361 -0.273193,2.487766 -1.401604,3.772955 -1.612047,1.836021 -2.445869,2.08108 -7.057648,2.074232 -3.534809,-0.0053 -4.237962,-0.08176 -5.313473,-0.578197 z"
     id="path1577" />
  <path
     style="opacity:0.980099;fill:#ffffff;stroke:#000000;stroke-width:0.275455;stroke-linecap:round;stroke-linejoin:bevel;paint-order:stroke fill markers"
     d="m 27.525379,18.210717 c 0,-1.254292 -0.341164,-2.103827 -1.298583,-3.233613 l -0.784578,-0.925828 0.146353,-4.5449989 0.146353,-4.5449994 0.964091,-0.4816173 c 2.07215,-1.035155 5.192737,-0.3513443 6.732909,1.475375 1.706683,2.0242092 1.983717,4.1867666 0.832335,6.4972906 -0.681138,1.366865 -4.843425,5.699825 -6.14388,6.395807 -0.556564,0.297864 -0.595,0.256688 -0.595,-0.637416 z"
     id="path1579" />
  <path
     style="opacity:0.980099;fill:#ffffff;stroke:#000000;stroke-width:0.275455;stroke-linecap:round;stroke-linejoin:bevel;paint-order:stroke fill markers"
     d="m 23.669015,13.207596 c -0.530249,-0.200624 -1.589143,-0.371767 -2.353096,-0.380318 l -1.389005,-0.01555 -0.334672,-1.2513 C 19.321626,10.548628 18.730947,9.7709861 16.50612,7.4974775 14.992822,5.9510676 13.754216,4.5551479 13.753661,4.3954338 13.753107,4.2357195 14.114898,3.533843 14.557642,2.835708 c 2.319175,-3.65695844 7.500395,-3.73730643 9.875041,-0.1531376 0.717738,1.0833157 0.755357,1.3127559 0.841348,5.1313415 0.0883,3.9210971 -0.06103,5.8566351 -0.446816,5.7913181 -0.10676,-0.01808 -0.62795,-0.197011 -1.1582,-0.397634 z"
     id="path1581" />
  <path
     style="opacity:0.980099;fill:#ffffff;stroke:#000000;stroke-width:0.275455;stroke-linecap:round;stroke-linejoin:bevel;paint-order:stroke fill markers"
     d="M 13.614926,13.568169 C 13.280765,13.368836 11.472607,13.197932 9.0191355,13.133782 L 4.9742539,13.028022 4.5429997,11.950212 C 2.6522073,7.2246563 7.56278,2.4393297 12.28017,4.4103811 c 1.20495,0.5034601 5.383119,4.4970604 6.468523,6.1827789 1.225303,1.902992 1.117241,2.121026 -1.130941,2.281883 -1.097496,0.07853 -2.213927,0.330286 -2.607127,0.587921 -0.805688,0.527907 -0.70039,0.51997 -1.395699,0.105205 z"
     id="path1583" />
  <path
     style="opacity:0.980099;fill:#ffffff;stroke:#000000;stroke-width:0.275455;stroke-linecap:round;stroke-linejoin:bevel;paint-order:stroke fill markers"
     d="M 8.0339089,34.480396 C 4.8038188,33.308939 3.1605443,29.393031 4.6626545,26.446729 c 0.3029999,-0.594316 0.550909,-1.096723 0.550909,-1.116459 0,-0.01974 -0.4816132,-0.180179 -1.0702515,-0.356539 -0.5886383,-0.17636 -1.5734705,-0.809013 -2.1885164,-1.405895 -2.95158443,-2.864415 -2.22677622,-7.531733 1.4683136,-9.455035 1.3803075,-0.718453 6.8062148,-1.009873 9.1280888,-0.490261 1.593889,0.356697 1.602911,0.368222 1.219877,1.558314 -0.141369,0.439232 -0.324078,4.827126 -0.40602,9.750876 l -0.148987,8.952271 -1.040116,0.474822 c -1.193598,0.544887 -2.841466,0.593254 -4.1420431,0.121573 z"
     id="path1585" />
  <path
     style="opacity:0.980099;fill:#ffffff;stroke:#000000;stroke-width:0.275455;stroke-linecap:round;stroke-linejoin:bevel;paint-order:stroke fill markers"
     d="M 17.186478,38.318809 C 16.057244,37.826858 14.590782,36.3181 14.088881,35.131871 13.862592,34.597042 13.615143,33.006017 13.538993,31.596257 l -0.138455,-2.563197 2.557927,-2.394984 c 1.40686,-1.31724 2.663653,-2.436301 2.792875,-2.486801 0.129222,-0.0505 0.234949,0.270675 0.234949,0.713722 0,2.140915 0.712222,3.385976 3.587006,6.270578 2.456312,2.4647 2.761522,2.87588 2.603133,3.506952 -0.257389,1.025519 -1.939193,2.888139 -3.178762,3.52052 -1.237375,0.631261 -3.548007,0.706068 -4.811188,0.155762 z"
     id="path1587" />
</svg>
