<?xml version="1.0" encoding="UTF-8" standalone="no"?>
<svg
   xmlns:dc="http://purl.org/dc/elements/1.1/"
   xmlns:cc="http://creativecommons.org/ns#"
   xmlns:rdf="http://www.w3.org/1999/02/22-rdf-syntax-ns#"
   xmlns:svg="http://www.w3.org/2000/svg"
   xmlns="http://www.w3.org/2000/svg"
   xmlns:sodipodi="http://sodipodi.sourceforge.net/DTD/sodipodi-0.dtd"
   xmlns:inkscape="http://www.inkscape.org/namespaces/inkscape"
   width="800"
   height="800"
   viewBox="0 0 211.66667 211.66667"
   version="1.1"
   id="svg8"
   inkscape:version="1.0.1 (0767f8302a, 2020-10-17)"
   sodipodi:docname="permapp_black.svg">
  <defs
     id="defs2" />
  <sodipodi:namedview
     id="base"
     pagecolor="#ffffff"
     bordercolor="#666666"
     borderopacity="1.0"
     inkscape:pageopacity="0.0"
     inkscape:pageshadow="2"
     inkscape:zoom="0.46689326"
     inkscape:cx="410.9915"
     inkscape:cy="480.93833"
     inkscape:document-units="mm"
     inkscape:current-layer="layer1"
     inkscape:document-rotation="0"
     showgrid="false"
     units="px"
     inkscape:window-width="1368"
     inkscape:window-height="836"
     inkscape:window-x="72"
     inkscape:window-y="27"
     inkscape:window-maximized="1" />
  <metadata
     id="metadata5">
    <rdf:RDF>
      <cc:Work
         rdf:about="">
        <dc:format>image/svg+xml</dc:format>
        <dc:type
           rdf:resource="http://purl.org/dc/dcmitype/StillImage" />
        <dc:title></dc:title>
      </cc:Work>
    </rdf:RDF>
  </metadata>
  <g
     inkscape:label="Layer 1"
     inkscape:groupmode="layer"
     id="layer1">
    <g
       id="YinYang"
       fill="#000000"
       stroke="none"
       stroke-width="0"
       fill-rule="evenodd"
       transform="matrix(0.25588408,0,0,0.25588408,4.4908977,3.8141213)"
       style="fill:#000000">
      <title
         id="title893">Yin-Yang, by Adam Stanislav</title>
      <desc
         id="desc895">The entire graphic is drawn as a single path filled with black (or any other color you change the value of “fill” in line 4). The other half, usually shown in white is created here as a hole in the path. That means it is completely transparent, and has whatever color its background has. To achieve this, not just with SVG but with other vector formats, any black portion of the path is drawn counterclockwise, any “white” portion clockwise. Also, this graphic is taking advantage of the kappa constant described in my e-book Bézier Circles and other shapes, freely downloadable from https://www.smashwords.com/books/view/483578 .</desc>
      <!-- Note to self: Relative Bézier differences (“c”) are differences of a point from the STARTING point of the curve segment, not from the most recent point. -->
      <path
         d="M 400,0 C 179.086,0 0,179.086 0,400 0,620.914 179.086,800 400,800 620.914,800 800,620.914 800,400 800,179.086 620.914,0 400,0 Z m 0,10 C 184.609,10 10,184.609 10,400 10,615.391 184.609,790 400,790 292.304,790 205,682.304 205,600 205,492.3 292.304,400 400,400 507.7,400 600,292.304 600,200 600,92.304 507.7,10 400,10 Z m 0,655 c 35.895,0 65,-29.105 65,-65 0,-35.895 -29.105,-65 -65,-65 -35.895,0 -65,29.105 -65,65 0,35.895 29.105,65 65,65 z m 0,-533 c -37.555,0 -68,30.445 -68,68 0,37.555 30.445,68 68,68 37.555,0 68,-30.445 68,-68 0,-37.555 -30.445,-68 -68,-68 z"
         id="path897"
         style="fill:#000000" />
    </g>
    <path
       style="fill:#00ffff;stroke:#000000;stroke-width:8.2867;stroke-linecap:round;stroke-linejoin:bevel;paint-order:stroke fill markers"
       d=""
       id="path1070" />
    <g
       id="layer1-4"
       transform="matrix(0.18413703,0,0,0.18413703,33.807122,-51.497763)"
       fill-rule="evenodd"
       style="fill:#3ebe93;fill-opacity:1">
      <path
         id="path2395"
         d="m 368.9,527.34 c -9.44,-62.95 -61.54,-87.74 -82.47,-96.95 -18.6,-8.17 -22.66,-23.29 -22.66,-23.29 0,0 -5.04,17 -5.04,25.18 0,8.19 -1.89,46.59 13.22,78.69 15.11,32.11 61.07,43.44 74.29,59.18 13.22,15.74 8.18,43.44 8.18,43.44 0,0 -0.63,-22.04 -15.74,-35.26 -15.11,-13.22 -52.25,-13.22 -73.02,-50.99 -20.78,-37.77 -22.54,-108.23 -4.41,-134.72 8.89,-12.98 0.69,6.86 14.48,19.52 12.79,11.74 51.52,23.4 74.28,46.58 25.96,26.44 19.52,69.88 18.89,68.62 z"
         style="fill:#3ebe93;fill-opacity:1" />
      <path
         id="path3199"
         d="m 339.99,553.06 c 5.43,-24.98 5.27,-36.33 -9.84,-52.07 -15.41,-16.06 -30.43,-10.7 -47.54,-39.12 8.9,34.53 30.97,31.92 43.28,50.92 12.02,18.56 12.87,39.59 14.1,40.27 z"
         style="fill:#3ebe93;fill-opacity:1" />
      <path
         id="path3201"
         d="m 388.32,524.74 c 24.35,-7.79 34.1,-13.6 40.18,-34.56 6.2,-21.37 -5.95,-31.7 10.11,-60.73 -25.46,24.98 -12.16,42.78 -22.46,62.94 -10.06,19.69 -27.85,30.94 -27.83,32.35 z"
         style="fill:#3ebe93;fill-opacity:1" />
      <path
         id="path3203"
         d="m 438.33,550.91 c 18.91,17.19 28.82,22.72 50.01,17.51 21.61,-5.32 24.48,-21.01 57.65,-21.61 -34.36,-9.56 -43.13,10.86 -65.74,12.02 -22.09,1.13 -40.72,-8.65 -41.92,-7.92 z"
         style="fill:#3ebe93;fill-opacity:1" />
      <path
         id="path3205"
         d="m 441.81,611.35 c -5.43,24.98 -5.27,36.33 9.84,52.07 15.41,16.06 30.43,10.7 47.54,39.12 -8.9,-34.54 -30.97,-31.92 -43.28,-50.92 -12.02,-18.56 -12.87,-39.59 -14.1,-40.27 z"
         style="fill:#3ebe93;fill-opacity:1" />
      <path
         id="path3207"
         d="m 397.25,640.3 c -24.35,7.78 -34.09,13.6 -40.17,34.55 -6.2,21.38 5.95,31.71 -10.11,60.74 25.46,-24.98 12.15,-42.79 22.45,-62.94 10.07,-19.7 27.86,-30.94 27.83,-32.35 z"
         style="fill:#3ebe93;fill-opacity:1" />
      <path
         id="path3209"
         d="m 351.66,614.13 c -18.92,-17.19 -28.83,-22.73 -50.01,-17.51 -21.62,5.31 -24.49,21 -57.66,21.61 34.36,9.56 43.13,-10.87 65.74,-12.02 22.09,-1.13 40.72,8.65 41.93,7.92 z"
         style="fill:#3ebe93;fill-opacity:1" />
      <path
         id="path2391"
         d="m 427.47,533.1 c 49.8,-39.65 45.23,-97.16 42.73,-119.89 -2.22,-20.2 8.84,-31.27 8.84,-31.27 0,0 -17.24,4.13 -24.33,8.23 -7.08,4.09 -41.28,21.65 -61.53,50.79 -20.25,29.14 -7.09,74.6 -14.11,93.92 -7.02,19.32 -33.52,28.8 -33.52,28.8 0,0 18.76,-11.56 22.66,-31.25 3.89,-19.7 -14.68,-51.86 7.64,-88.74 22.33,-36.88 82.47,-73.63 114.47,-71.17 15.69,1.2 -5.59,4.02 -9.66,22.29 -3.78,16.95 5.5,56.32 -3.2,87.63 -9.92,35.7 -50.76,51.84 -49.99,50.66 z"
         style="fill:#3ebe93;fill-opacity:1" />
      <path
         id="path2393"
         d="m 452.6,584.82 c 59.24,23.3 106.76,-9.42 125.19,-22.94 16.38,-12.02 31.5,-7.98 31.5,-7.98 0,0 -12.2,-12.86 -19.29,-16.96 -7.09,-4.09 -39.4,-24.92 -74.76,-27.89 -35.35,-2.97 -68.14,31.16 -88.38,34.74 -20.24,3.58 -41.71,-14.63 -41.71,-14.63 0,0 19.39,10.47 38.4,4 19,-6.48 37.57,-38.64 80.67,-37.75 43.1,0.9 105,34.6 118.87,63.55 6.8,14.19 -6.29,-2.83 -24.14,2.78 -16.57,5.2 -46.02,32.92 -77.49,41.04 -35.87,9.26 -70.27,-18.04 -68.86,-17.96 z"
         style="fill:#3ebe93;fill-opacity:1" />
      <path
         id="path2396"
         d="m 416.88,630.92 c 9.44,62.95 61.53,87.74 82.46,96.94 18.61,8.18 22.67,23.3 22.67,23.3 0,0 5.03,-17 5.03,-25.18 0,-8.19 1.89,-46.59 -13.22,-78.7 -15.11,-32.1 -61.06,-43.43 -74.28,-59.17 -13.22,-15.74 -8.19,-43.44 -8.19,-43.44 0,0 0.63,22.04 15.74,35.26 15.11,13.22 52.25,13.22 73.03,50.99 20.77,37.77 22.54,108.23 4.4,134.71 -8.89,12.99 -0.69,-6.85 -14.48,-19.51 -12.79,-11.74 -51.52,-23.4 -74.28,-46.58 -25.96,-26.44 -19.51,-69.88 -18.88,-68.62 z"
         style="fill:#3ebe93;fill-opacity:1" />
      <path
         id="path2398"
         d="m 359.84,624.4 c -49.8,39.65 -45.22,97.17 -42.72,119.89 2.21,20.2 -8.84,31.27 -8.84,31.27 0,0 17.23,-4.13 24.32,-8.22 7.09,-4.1 41.29,-21.66 61.54,-50.8 20.25,-29.14 7.08,-74.6 14.1,-93.92 7.02,-19.31 33.53,-28.8 33.53,-28.8 0,0 -18.77,11.56 -22.66,31.25 -3.9,19.7 14.67,51.86 -7.65,88.74 -22.32,36.88 -82.46,73.64 -114.46,71.17 -15.7,-1.2 5.59,-4.02 9.66,-22.29 3.77,-16.95 -5.5,-56.32 3.2,-87.63 9.92,-35.69 50.76,-51.83 49.98,-50.66 z"
         style="fill:#3ebe93;fill-opacity:1" />
      <path
         id="path2400"
         d="m 335.39,573.35 c -59.24,-23.3 -106.76,9.42 -125.2,22.95 -16.38,12.02 -31.5,7.98 -31.5,7.98 0,0 12.2,12.86 19.29,16.95 7.09,4.09 39.4,24.93 74.76,27.89 35.36,2.97 68.15,-31.16 88.39,-34.74 20.24,-3.58 41.71,14.63 41.71,14.63 0,0 -19.4,-10.47 -38.4,-4 -19.01,6.48 -37.58,38.64 -80.68,37.75 -43.09,-0.9 -105,-34.6 -118.87,-63.54 -6.8,-14.2 6.29,2.83 24.14,-2.78 16.57,-5.21 46.03,-32.92 77.49,-41.04 35.87,-9.26 70.27,18.03 68.87,17.95 z"
         style="fill:#3ebe93;fill-opacity:1" />
    </g>
  </g>
</svg>
