<?xml version="1.0" encoding="UTF-8" standalone="no"?>
<svg
   xmlns:dc="http://purl.org/dc/elements/1.1/"
   xmlns:cc="http://creativecommons.org/ns#"
   xmlns:rdf="http://www.w3.org/1999/02/22-rdf-syntax-ns#"
   xmlns:svg="http://www.w3.org/2000/svg"
   xmlns="http://www.w3.org/2000/svg"
   xmlns:sodipodi="http://sodipodi.sourceforge.net/DTD/sodipodi-0.dtd"
   xmlns:inkscape="http://www.inkscape.org/namespaces/inkscape"
   width="400"
   height="400"
   viewBox="0 0 105.83333 105.83333"
   version="1.1"
   id="svg8"
   sodipodi:docname="soil2.svg"
   inkscape:version="1.0.1 (0767f8302a, 2020-10-17)">
  <defs
     id="defs2" />
  <sodipodi:namedview
     id="base"
     pagecolor="#ffffff"
     bordercolor="#666666"
     borderopacity="1.0"
     inkscape:pageopacity="0.0"
     inkscape:pageshadow="2"
     inkscape:zoom="0.61580177"
     inkscape:cx="163.76852"
     inkscape:cy="192.86126"
     inkscape:document-units="mm"
     inkscape:current-layer="layer1"
     inkscape:document-rotation="0"
     showgrid="false"
     units="px"
     inkscape:window-width="1368"
     inkscape:window-height="836"
     inkscape:window-x="72"
     inkscape:window-y="27"
     inkscape:window-maximized="1" />
  <metadata
     id="metadata5">
    <rdf:RDF>
      <cc:Work
         rdf:about="">
        <dc:format>image/svg+xml</dc:format>
        <dc:type
           rdf:resource="http://purl.org/dc/dcmitype/StillImage" />
        <dc:title></dc:title>
      </cc:Work>
    </rdf:RDF>
  </metadata>
  <g
     inkscape:label="Layer 1"
     inkscape:groupmode="layer"
     id="layer1">
    <g
       id="g1110"
       transform="translate(-0.97150028,-0.20115243)">
      <g
         id="001---Plant"
         fill="#000000"
         fill-rule="nonzero"
         transform="matrix(0.86100417,0,0,0.85151332,28.846914,26.736255)">
        <path
           id="Shape"
           d="M 54,43 C 53.101002,42.9977 52.213619,43.203051 51.407,43.6 50.490782,41.063051 48.588559,39.003816 46.132083,37.889684 43.675608,36.775552 40.873225,36.701018 38.361,37.683 c -1.085269,-2.735672 -3.445193,-4.763644 -6.313,-5.425 0.541927,-2.968739 1.539364,-5.835905 2.957,-8.5 0.301472,0.103026 0.61743,0.157374 0.936,0.161 0.1,0 0.193,0 0.291,-0.013 3.335,-0.312 9.574,-1.479 13.884,-5.789 4.31,-4.31 5.477,-10.55 5.789,-13.885 C 55.999647,3.3529126 55.691157,2.4782453 55.065956,1.8530442 54.440755,1.2278432 53.566087,0.91935297 52.687,1.014 49.351,1.326 43.111,2.494 38.8,6.8 c -4.311,4.306 -5.477,10.548 -5.789,13.884 -0.06114,0.635326 0.0829,1.273526 0.411,1.821 -1.632621,2.960019 -2.769338,6.167486 -3.365,9.495 -0.02,0 -0.038,0 -0.057,0 -0.157,0 -0.307,0.027 -0.463,0.035 -0.949846,-2.453558 -2.283838,-4.740451 -3.952,-6.775 0.275375,-0.552541 0.372842,-1.176814 0.279,-1.787 -0.51,-3.312 -2.046,-9.472 -6.6,-13.517 C 14.71,5.911 8.406,5.116 5.058,5 4.175472,4.9576216 3.3211874,5.3169823 2.7343247,5.9774699 2.1474621,6.6379575 1.891095,7.5285854 2.037,8.4 c 0.509,3.312 2.046,9.471 6.6,13.517 4.554,4.046 10.856,4.84 14.2,4.954 h 0.107 c 0.40563,-2.53e-4 0.807015,-0.08257 1.18,-0.242 1.403298,1.731971 2.54356,3.661386 3.384,5.726 -2.679148,0.765495 -4.850207,2.732936 -5.875,5.324 -2.51203,-0.979878 -5.313314,-0.903793 -7.768451,0.210998 C 11.409412,39.004788 9.5085044,41.063801 8.593,43.6 7.7863813,43.203051 6.8989976,42.997718 6,43 c -3.3137085,0 -6,2.686292 -6,6 0,3.313708 2.6862915,6 6,6 0.8114575,9.01e-4 1.6141947,-0.167344 2.357,-0.494 0.9513885,3.294872 3.69485,5.76118 7.072065,6.357622 3.377214,0.596441 6.799502,-0.780949 8.821935,-3.550622 1.423852,1.703531 3.529781,2.68801 5.75,2.68801 2.220219,0 4.326148,-0.984479 5.75,-2.68801 2.022433,2.769673 5.444721,4.147063 8.821935,3.550622 C 47.95015,60.26718 50.693611,57.800872 51.645,54.506 52.387189,54.832385 53.189216,55.000623 54,55 c 3.313708,0 6,-2.686292 6,-6 0,-3.313708 -2.686292,-6 -6,-6 z M 40.217,8.217 c 3.865,-3.865 9.589,-4.925 12.657,-5.212 0.284954,-0.028705 0.568459,0.066769 0.778,0.262 0.200153,0.2065752 0.296418,0.4924303 0.262,0.778 -0.288,3.068 -1.346,8.791 -5.214,12.655 -3.725,3.725 -9.168,4.841 -12.3,5.175 3.952563,-4.804971 8.384824,-9.194343 13.228,-13.1 0.279024,-0.223291 0.417729,-0.5784781 0.363866,-0.9317659 -0.05386,-0.3532877 -0.292112,-0.6510033 -0.625,-0.781 C 49.033978,6.9322374 48.657024,6.989709 48.378,7.213 43.510671,11.13871 39.048739,15.542016 35.059,20.357 35.415,17.2 36.558,11.875 40.217,8.217 Z M 4.013,8.1 C 3.9584771,7.8238179 4.0331168,7.5378592 4.2156641,7.3235561 4.3982113,7.109253 4.668662,6.9900897 4.95,7 h 0.04 c 3.079,0.1 8.856,0.822 12.944,4.451 3.942,3.5 5.379,8.873 5.9,11.983 C 19.944,19.674 10.134,10.675 9.679,10.262 9.4156953,10.020488 9.0435468,9.937794 8.7027393,10.045067 c -0.3408075,0.107273 -0.5984973,0.388215 -0.676,0.737 -0.077503,0.348784 0.036956,0.712421 0.3002607,0.953933 0.111,0.1 10.192,9.345 14.1,13.118 C 19.256,24.691 13.855,23.872 9.972,20.425 5.879,16.8 4.482,11.146 4.013,8.1 Z M 54,53 C 53.112276,52.9963 52.25167,52.693721 51.557,52.141 51.272046,51.918917 50.889461,51.867798 50.556198,52.00728 50.222934,52.146762 49.990816,52.455153 49.949,52.814 49.58871,55.910239 47.222621,58.394169 44.147533,58.904403 41.072445,59.414637 38.03094,57.827962 36.69,55.014 36.525761,54.671042 36.181224,54.45091 35.801,54.446 h -0.012 c -0.376034,1e-6 -0.72028,0.210953 -0.891,0.546 -0.935069,1.847266 -2.829555,3.011665 -4.9,3.011665 -2.070445,0 -3.964931,-1.164399 -4.9,-3.011665 -0.164172,-0.345284 -0.517926,-0.559895 -0.9,-0.546 -0.380224,0.0049 -0.724761,0.225042 -0.889,0.568 -1.34094,2.813962 -4.382445,4.400637 -7.457533,3.890403 C 12.776379,58.394169 10.41029,55.910239 10.05,52.814 10.008184,52.455153 9.7760659,52.146761 9.4428023,52.00728 9.1095388,51.867798 8.7269538,51.918917 8.442,52.141 7.7475985,52.693509 6.8873805,52.9961 6,53 3.790861,53 2,51.209139 2,49 c 0,-2.209139 1.790861,-4 4,-4 0.9334477,0.0028 1.8354859,0.337434 2.545,0.944 0.270146,0.225259 0.6387732,0.292026 0.9707652,0.175829 C 9.8477572,46.003632 10.09429,45.721559 10.165,45.377 c 0.511689,-2.47022 2.158536,-4.554383 4.443475,-5.62343 2.28494,-1.069048 4.940265,-0.997729 7.164525,0.19243 0.271787,0.145818 0.595655,0.158059 0.877674,0.03317 0.282018,-0.124886 0.490628,-0.372923 0.565326,-0.672174 0.615475,-2.466411 2.525771,-4.40162 4.984,-5.049 0.410593,1.28018 0.668711,2.604333 0.769,3.945 -0.624729,0.251073 -1.194648,0.621283 -1.678,1.09 -0.364282,0.393473 -0.353388,1.004236 0.0247,1.384466 0.378084,0.38023 0.988775,0.394583 1.384304,0.03253 0.351121,-0.363266 0.804588,-0.610929 1.3,-0.71 0.492637,0.09933 0.943515,0.345866 1.293,0.707 0.392379,0.378972 1.016085,0.373552 1.401819,-0.01218 0.385733,-0.385734 0.391153,-1.00944 0.01218,-1.401819 -0.470331,-0.452758 -1.020664,-0.814221 -1.623,-1.066 0.1,-0.862 0.282,-2.3 0.582,-4 2.518482,0.610782 4.48995,2.568769 5.118,5.083 0.0747,0.299251 0.283308,0.547288 0.565326,0.672174 0.282019,0.124885 0.605887,0.112644 0.877674,-0.03317 2.22426,-1.190159 4.879585,-1.261478 7.164525,-0.19243 2.284939,1.069047 3.931786,3.15321 4.443475,5.62343 0.07071,0.344558 0.317243,0.626632 0.649235,0.742829 0.331989,0.1162 0.700616,0.04943 0.970762,-0.175826 C 52.16409,45.33935 53.066172,45.003683 54,45 c 2.209139,0 4,1.790861 4,4 0,2.209139 -1.790861,4 -4,4 z" />
        <path
           id="path967"
           d="m 19,45 c -0.552285,0 -1,0.447715 -1,1 0,0.552285 -0.447715,1 -1,1 -0.552285,0 -1,-0.447715 -1,-1 0,-0.552285 -0.447715,-1 -1,-1 -0.552285,0 -1,0.447715 -1,1 0,1.656854 1.343146,3 3,3 1.656854,0 3,-1.343146 3,-3 0,-0.552285 -0.447715,-1 -1,-1 z" />
        <path
           id="path969"
           d="m 30,49 c -0.552285,0 -1,0.447715 -1,1 0,0.552285 -0.447715,1 -1,1 -0.552285,0 -1,-0.447715 -1,-1 0,-0.552285 -0.447715,-1 -1,-1 -0.552285,0 -1,0.447715 -1,1 0,1.656854 1.343146,3 3,3 1.656854,0 3,-1.343146 3,-3 0,-0.552285 -0.447715,-1 -1,-1 z" />
        <path
           id="path971"
           d="m 43,43 c -0.552285,0 -1,0.447715 -1,1 0,0.552285 -0.447715,1 -1,1 -0.552285,0 -1,-0.447715 -1,-1 0,-0.552285 -0.447715,-1 -1,-1 -0.552285,0 -1,0.447715 -1,1 0,1.656854 1.343146,3 3,3 1.656854,0 3,-1.343146 3,-3 0,-0.552285 -0.447715,-1 -1,-1 z" />
        <circle
           id="Oval"
           cx="42"
           cy="53"
           r="1" />
        <circle
           id="circle974"
           cx="48"
           cy="48"
           r="1" />
        <circle
           id="circle976"
           cx="58"
           cy="41"
           r="1" />
        <circle
           id="circle978"
           cx="33"
           cy="45"
           r="1" />
        <circle
           id="circle980"
           cx="8"
           cy="38"
           r="1" />
        <circle
           id="circle982"
           cx="53"
           cy="39"
           r="1" />
        <circle
           id="circle984"
           cx="18"
           cy="54"
           r="1" />
        <circle
           id="circle986"
           cx="12"
           cy="34"
           r="1" />
      </g>
      <ellipse
         style="fill:none;stroke:#000000;stroke-width:1.46068;stroke-linecap:round;stroke-linejoin:bevel;paint-order:stroke fill markers"
         id="path1026"
         cx="53.902866"
         cy="53.522511"
         rx="51.134388"
         ry="50.723583" />
      <ellipse
         style="fill:none;stroke:#000000;stroke-width:1.587;stroke-linecap:round;stroke-linejoin:bevel;stroke-miterlimit:4;stroke-dasharray:none;paint-order:stroke fill markers"
         id="path1026-5"
         cx="54.079903"
         cy="53.560833"
         rx="38.009506"
         ry="37.806564" />
    </g>
  </g>
</svg>
